# xmcd
#
# Track frame offsets:
#       150
#       19147
#       35397
#       55078
#       74621
#       92113
#       110826
#       127825
#       142323
#       161491
#
# Disc length: 2404 seconds
#
#
# Revision: 0
# Processed by: cddbd v1.5.1PL0 Copyright (c) Steve Scherf et al.
# Submitted via: Visual Ripper tool of Visual MP3 v4.18
#
DISCID=8e09620a
DTITLE=Ulaþ - Gamzeler
DYEAR=2004
DGENRE=Blues
TTITLE0=Bende Sýra
TTITLE1=Birileri
TTITLE2=Bula Bula
TTITLE3=Ýnanma
TTITLE4=Deðiþmem
TTITLE5=Deli Gönül
TTITLE6=Göz Yaþlarý
TTITLE7=Sensiz Olmaz
TTITLE8=Gamzeler
TTITLE9=Yaz Geldi
EXTD=
EXTT0=
EXTT1=
EXTT2=
EXTT3=
EXTT4=
EXTT5=
EXTT6=
EXTT7=
EXTT8=
EXTT9=
PLAYORDER=
